<svg xmlns="http://www.w3.org/2000/svg" xmlns:xlink="http://www.w3.org/1999/xlink" fill="none" version="1.1" width="512" height="512" viewBox="0 0 512 512"><g style="mix-blend-mode:passthrough"><g style="mix-blend-mode:passthrough"><rect x="0" y="0" width="512" height="512" rx="0" fill="#F0DB4F" fill-opacity="1"/></g><g><g><path d="M388.6885,342.6404Q395.6414,368.2804,395.6414,383Q395.6414,397.7196,388.6896,423.3555Q387.2305,428.722,390.0143,433.328Q392.8379,438,397.661,438L458.8462,438Q463.6692,438,466.4925,433.329Q469.2763,428.724,467.81870000000004,423.3596Q460.8658,397.7196,460.8658,383Q460.8658,368.2804,467.8175,342.6445Q469.27660000000003,337.27838,466.4928,332.67204Q463.6693,328.000000491738,458.8462,328.000000491738L397.661,328.000000491738Q392.8379,328,390.0143,332.67204Q387.2305,337.27838,388.6885,342.6404ZM397.5615,426.7175Q404.9592,399.4374,404.9591,383Q404.9591,366.5626,397.5626,339.2866Q397.5317,339.1729,397.5995,339.0607Q397.6362,339,397.661,339L458.8462,339Q458.8709,339,458.9076,339.0607Q458.9754,339.1729,458.9456,339.2825Q451.548,366.5626,451.548,383Q451.548,399.4373,458.9445,426.7134Q458.9756,426.8279,458.908,426.9398Q458.8716,427,458.8462,427L397.661,427Q397.6362,427,397.5995,426.9393Q397.5317,426.8271,397.5615,426.7175ZM385.55648,355.214Q388.4854,359.9971,389.8795,368.5551Q390.9825,375.326,390.9825,383Q390.9825,390.674,389.8795,397.4449Q388.4854,406.0029,385.55649,410.786C384.69293,412.3288,383.2311,413.2569,381.66471,413.2569C379.08846,413.2569,377,410.7914,377,407.75C377,406.4846,377.369132,405.2579,378.04531,404.276Q379.73396,401.4785,380.72941,395.3676Q381.66471,389.626,381.66471,383Q381.66471,376.374,380.72941,370.6324Q379.73396,364.5215,378.04531,361.724C377.369135,360.7421,377.000000833074,359.5154,377.000000833074,358.25C377.000000833074,355.2086,379.08846,352.7431,381.66471,352.7431C383.2311,352.7431,384.69292,353.6712,385.55648,355.214Z" fill-rule="evenodd" fill="#000000" fill-opacity="1"/></g><g><path d="M414.7997762451172,365.2298C414.7224162451172,365.2344,414.6449662451172,365.2366,414.5674962451172,365.2366C411.9993862451172,365.2366,409.9175262451172,362.7772,409.9175262451172,359.74332C409.9175262451172,356.70944,411.9993862451172,354.25,414.5674962451172,354.25C414.6449662451172,354.25,414.7224162451172,354.25228684,414.7997762451172,354.25685808L442.20022624511716,354.25685808C442.2776262451172,354.25228684,442.3550262451172,354.25,442.4325262451172,354.25C445.0006262451172,354.25,447.0824262451172,356.70944,447.0824262451172,359.74332C447.0824262451172,362.7772,445.0006262451172,365.2366,442.4325262451172,365.2366C442.3550262451172,365.2366,442.2776262451172,365.2344,442.20022624511716,365.2298L414.7997762451172,365.2298ZM414.7997762451172,388.5473C414.7224062451172,388.5518,414.6449562451172,388.5541,414.5674962451172,388.5541C411.9993862451172,388.5541,409.9175262451172,386.0947,409.9175262451172,383.0608C409.9175262451172,380.0269,411.9993862451172,377.5675,414.5674962451172,377.5675C414.6449562451172,377.5675,414.7224062451172,377.5698,414.7997762451172,377.5743L442.20022624511716,377.5743C442.2776262451172,377.5698,442.3550262451172,377.5675,442.4325262451172,377.5675C445.0006262451172,377.5675,447.0824262451172,380.0269,447.0824262451172,383.0608C447.0824262451172,386.0947,445.0006262451172,388.5541,442.4325262451172,388.5541C442.3550262451172,388.5541,442.2776262451172,388.5518,442.20022624511716,388.5473L414.7997762451172,388.5473ZM414.79980624511717,399.5202C414.72242624511716,399.5156,414.6449662451172,399.5133,414.5674962451172,399.5133C411.9993862451172,399.5133,409.9175262451172,401.9728,409.9175262451172,405.0067C409.9175262451172,408.0406,411.9993862451172,410.5,414.5674962451172,410.5C414.6449662451172,410.5,414.72242624511716,410.4977,414.79980624511717,410.4931L423.6235262451172,410.4931C423.7009262451172,410.4977,423.77832624511717,410.5,423.8558262451172,410.5C426.4239262451172,410.5,428.5058262451172,408.0406,428.5058262451172,405.0067C428.5058262451172,401.9728,426.4239262451172,399.5133,423.8558262451172,399.5133C423.77832624511717,399.5133,423.7009262451172,399.5156,423.6235262451172,399.5202L414.79980624511717,399.5202Z" fill-rule="evenodd" fill="#000000" fill-opacity="1"/></g><g><path d="M478.9680770751953,361.9046C479.63557707519533,360.93111,479.9999770751953,359.71475,479.9999770751953,358.46012C479.9999770751953,355.44458,477.9381770751953,353,475.3947970751953,353C473.8483870751953,353,472.4052170751953,353.920229,471.5526670751953,355.44991Q468.6610670751953,360.1924,467.2847670751953,368.6777Q466.1958770751953,375.3911,466.1958770751953,383Q466.1958770751953,397.7615,471.17303707519534,409.7212C471.9049270751953,411.7125,473.5627370751953,413,475.3947970751953,413C477.9381770751953,413,479.9999770751953,410.5554,479.9999770751953,407.5399C479.9999770751953,406.6053,479.79767707519534,405.6863,479.41227707519533,404.8709Q475.3947870751953,395.2005,475.3947870751953,383Q475.3947870751953,376.4303,476.3181770751953,370.7374Q477.30087707519533,364.6784,478.9680770751953,361.9046Z" fill-rule="evenodd" fill="#000000" fill-opacity="1"/></g></g><g style="mix-blend-mode:passthrough"><path d="M194.18755,439.609125Q182.14065,439.609125,172.15625,433.609125Q162.18755,427.593725,156.26563,417.671925Q150.34375,407.734325,150.34375,396.484325L150.34375,335.078125Q150.34375,332.828125,152.60937,331.015625Q154.875,329.203125,157.90625,329.203125Q160.92185,329.203125,163.10935,331.015625Q165.29685,332.828125,165.29685,335.078125L165.29685,396.484325Q165.29685,403.968725,169.14065,410.640625Q172.99995,417.296925,179.54685,421.562525Q186.09375,425.812525,194.14065,425.812525Q202.20315,425.812525,208.67185,421.640625Q215.14065,417.468725,218.96875,410.718725Q222.79685,403.953125,222.79685,396.484325L222.79685,334.843745Q222.79685,332.515625,225.09375,330.859375Q227.40625,329.203125,230.35935,329.203125Q233.71875,329.203125,235.71875,330.859375Q237.73435,332.515625,237.73435,334.843745L237.73435,396.484325Q237.73435,407.984325,231.81255,417.828125Q225.89065,427.656225,215.93755,433.640125Q205.98435,439.609125,194.18755,439.609125ZM272.67175,438.000125Q269.51575,438.000125,267.40575,436.187125Q265.31275,434.375125,265.31275,432.140125L265.31275,334.843745Q265.31275,332.250005,267.40575,330.734375Q269.51575,329.203125,272.67175,329.203125Q275.67175,329.203125,277.67175,330.734375Q279.68775,332.250005,279.68775,334.843745L279.68775,345.312525Q283.43775,338.640625,291.21875,333.234375Q299.01575,327.828125,310.51575,327.828125Q321.60974999999996,327.828125,330.89075,333.703125Q340.18775,339.562525,345.76575,349.281225Q351.34375,359.000025,351.34375,370.953125L351.34375,432.140125Q351.34375,435.062125,348.98474999999996,436.531125Q346.62475,438.000125,343.74975,438.000125Q341.15575,438.000125,338.76575,436.531125Q336.39075,435.062125,336.39075,432.140125L336.39075,370.953125Q336.39075,363.484325,332.46875,356.812525Q328.56275,350.140625,322.09375,345.890625Q315.62475,341.625025,307.74975,341.625025Q300.96875,341.625025,294.64075,345.171925Q288.31275,348.703125,284.28175,355.171925Q280.26575,361.640625,280.26575,370.953125L280.26575,432.140125Q280.26575,434.375125,278.07775,436.187125Q275.89075,438.000125,272.67175,438.000125Z" fill="#000000" fill-opacity="1"/></g></g></svg>